<svg width="958" height="340" viewBox="0 0 958 340" fill="none" xmlns="http://www.w3.org/2000/svg">
  <path d="M953.013 166.215C953.013 188.838 939.855 210.46 915.897 230.195C891.943 249.927 857.25 267.719 814.336 282.671C728.512 312.572 609.916 331.076 478.894 331.076C347.872 331.076 229.276 312.572 143.452 282.671C100.538 267.719 65.8451 249.927 41.8907 230.195C17.9328 210.46 4.77484 188.838 4.77484 166.215C4.77484 143.593 17.9328 121.97 41.8907 102.236C65.8451 82.5039 100.538 64.7119 143.452 49.7604C229.276 19.859 347.872 1.35541 478.894 1.35541C609.916 1.35541 728.512 19.859 814.336 49.7604C857.25 64.7119 891.943 82.5039 915.897 102.236C939.855 121.97 953.013 143.593 953.013 166.215Z" stroke="url(#paint0_linear_16_271)" shape-rendering="crispEdges"/>
  <defs>
    <linearGradient id="paint0_linear_16_271" x1="478.894" y1="0.855408" x2="478.894" y2="331.576" gradientUnits="userSpaceOnUse">
      <stop stop-opacity="0"/>
      <stop offset="0.479167" stop-color="#763CAC"/>
    </linearGradient>
  </defs>
</svg>
