<svg width="1116" height="658" viewBox="0 0 1116 658" fill="none" xmlns="http://www.w3.org/2000/svg">
<path d="M653.184 2.27393C598.93 60.6725 557.888 201.444 566.833 334.224" stroke="url(#paint0_linear_272_2)"/>
<path d="M589.198 0.429688C565.591 81.5729 546.333 292.422 546.333 358.812" stroke="url(#paint1_linear_272_2)"/>
<path d="M461.225 5.34741C515.388 61.8621 550.781 245.684 541.85 374.18" stroke="url(#paint2_linear_272_2)"/>
<path d="M523.347 5.34741C547.269 92.2868 549.439 310.425 549.439 381.557" stroke="url(#paint3_linear_272_2)"/>
<g filter="url(#filter0_dd_272_2)">
<path d="M1098.11 484.215C1098.11 506.806 1082.95 528.426 1055.31 548.174C1027.67 567.913 987.655 585.71 938.16 600.664C839.176 630.571 702.401 649.076 551.303 649.076C400.204 649.076 263.43 630.571 164.446 600.664C114.951 585.71 74.9332 567.913 47.3004 548.174C19.6552 528.426 4.5 506.806 4.5 484.215C4.5 461.625 19.6552 440.005 47.3004 420.257C74.9332 400.518 114.951 382.721 164.446 367.767C263.43 337.86 400.204 319.355 551.303 319.355C702.401 319.355 839.176 337.86 938.16 367.767C987.655 382.721 1027.67 400.518 1055.31 420.257C1082.95 440.005 1098.11 461.625 1098.11 484.215Z" stroke="url(#paint4_linear_272_2)" shape-rendering="crispEdges"/>
</g>
<g filter="url(#filter1_dd_272_2)">
<path d="M1031.01 484.215C1031.01 506.838 1017.85 528.46 993.897 548.195C969.943 567.927 935.25 585.719 892.336 600.671C806.512 630.572 687.916 649.076 556.894 649.076C425.872 649.076 307.276 630.572 221.452 600.671C178.538 585.719 143.845 567.927 119.891 548.195C95.9328 528.46 82.7748 506.838 82.7748 484.215C82.7748 461.593 95.9328 439.97 119.891 420.236C143.845 400.504 178.538 382.712 221.452 367.76C307.276 337.859 425.872 319.355 556.894 319.355C687.916 319.355 806.512 337.859 892.336 367.76C935.25 382.712 969.943 400.504 993.897 420.236C1017.85 439.97 1031.01 461.593 1031.01 484.215Z" stroke="url(#paint5_linear_272_2)" shape-rendering="crispEdges"/>
</g>
<g filter="url(#filter2_dd_272_2)">
<path d="M999.008 477.36C999.008 500.001 987.029 521.628 965.243 541.355C943.457 561.082 911.904 578.871 872.872 593.82C794.81 623.718 686.935 642.22 567.754 642.22C448.574 642.22 340.699 623.718 262.637 593.82C223.604 578.871 192.051 561.082 170.265 541.355C148.479 521.628 136.5 500.001 136.5 477.36C136.5 454.719 148.479 433.092 170.265 413.365C192.051 393.638 223.604 375.849 262.637 360.9C340.699 331.002 448.574 312.5 567.754 312.5C686.935 312.5 794.81 331.002 872.872 360.9C911.904 375.849 943.457 393.638 965.243 413.365C987.029 433.092 999.008 454.719 999.008 477.36Z" stroke="url(#paint6_linear_272_2)" shape-rendering="crispEdges"/>
</g>
<path d="M746.49 399.384C746.49 492.417 661.662 567.932 556.894 567.932C452.126 567.932 367.298 492.417 367.298 399.384C367.298 306.351 452.126 230.836 556.894 230.836C661.662 230.836 746.49 306.351 746.49 399.384Z" stroke="url(#paint7_linear_272_2)"/>
<path d="M739.035 443.029C739.035 470.602 718.713 495.672 685.618 513.878C652.541 532.074 606.811 543.343 556.273 543.343C505.734 543.343 460.004 532.074 426.927 513.878C393.832 495.672 373.51 470.602 373.51 443.029C373.51 415.457 393.832 390.387 426.927 372.181C460.004 353.985 505.734 342.715 556.273 342.715C606.811 342.715 652.541 353.985 685.618 372.181C718.713 390.387 739.035 415.457 739.035 443.029Z" stroke="url(#paint8_linear_272_2)"/>
<path d="M1063.93 377.73C1063.93 375.867 1061.86 374.101 1058.69 373.006C1059.42 369.36 1059.09 366.458 1057.66 365.529C1057.31 365.309 1056.92 365.199 1056.52 365.209V366.486C1056.75 366.486 1056.94 366.539 1057.1 366.636C1057.79 367.084 1058.09 368.786 1057.86 370.976C1057.8 371.515 1057.71 372.082 1057.6 372.661C1056.53 372.373 1055.45 372.164 1054.37 372.037C1053.72 371.029 1053.01 370.071 1052.25 369.17C1053.91 367.433 1055.47 366.481 1056.52 366.481V365.203C1055.12 365.203 1053.29 366.327 1051.44 368.276C1049.59 366.34 1047.76 365.226 1046.36 365.226V366.504C1047.41 366.504 1048.97 367.451 1050.63 369.176C1049.92 370.02 1049.21 370.976 1048.53 372.037C1047.44 372.163 1046.36 372.373 1045.29 372.667C1045.18 372.118 1045.09 371.564 1045.03 371.005C1044.79 368.814 1045.08 367.112 1045.77 366.66C1045.92 366.556 1046.12 366.51 1046.36 366.51V365.232C1045.93 365.232 1045.54 365.335 1045.21 365.552C1043.78 366.481 1043.46 369.376 1044.19 373.012C1041.03 374.113 1038.97 375.873 1038.97 377.73C1038.97 379.594 1041.04 381.36 1044.21 382.453C1043.48 386.101 1043.81 389.002 1045.24 389.931C1045.57 390.149 1045.96 390.252 1046.39 390.252C1047.79 390.252 1049.62 389.128 1051.47 387.179C1053.32 389.116 1055.15 390.228 1056.55 390.228C1056.96 390.238 1057.35 390.127 1057.7 389.907C1059.13 388.979 1059.45 386.084 1058.72 382.449C1061.87 381.354 1063.93 379.588 1063.93 377.73ZM1057.31 373.906C1057.11 374.672 1056.88 375.428 1056.62 376.17C1056.19 375.238 1055.73 374.331 1055.22 373.452C1055.94 373.573 1056.64 373.722 1057.31 373.906H1057.31ZM1054.98 380.012C1054.6 380.761 1054.19 381.492 1053.75 382.202C1052.22 382.354 1050.69 382.356 1049.16 382.208C1048.28 380.799 1047.52 379.306 1046.87 377.748C1047.52 376.186 1048.28 374.688 1049.15 373.271C1050.68 373.119 1052.21 373.116 1053.74 373.264C1054.16 373.946 1054.57 374.675 1054.97 375.444C1055.36 376.194 1055.71 376.955 1056.03 377.724C1055.71 378.502 1055.35 379.266 1054.98 380.012ZM1056.62 379.267C1056.89 380.034 1057.13 380.803 1057.32 381.549C1056.66 381.733 1055.95 381.887 1055.23 382.007C1055.73 381.12 1056.2 380.206 1056.62 379.267ZM1051.46 385.384C1050.99 384.834 1050.51 384.221 1050.05 383.549C1050.5 383.573 1050.97 383.59 1051.44 383.59C1051.92 383.59 1052.4 383.578 1052.86 383.549C1052.4 384.221 1051.93 384.834 1051.46 385.384ZM1047.67 382.007C1046.97 381.892 1046.28 381.741 1045.59 381.554C1045.78 380.815 1046.01 380.052 1046.27 379.29C1046.48 379.747 1046.7 380.207 1046.94 380.666C1047.18 381.124 1047.42 381.572 1047.67 382.007ZM1051.43 370.076C1051.91 370.627 1052.38 371.24 1052.85 371.911C1052.39 371.888 1051.92 371.87 1051.45 371.87C1050.97 371.87 1050.5 371.882 1050.04 371.911C1050.49 371.24 1050.97 370.627 1051.43 370.076ZM1047.67 373.454C1047.16 374.338 1046.7 375.251 1046.28 376.188C1046.01 375.441 1045.77 374.679 1045.57 373.906C1046.24 373.728 1046.94 373.573 1047.67 373.454ZM1043.06 380.631C1041.26 379.766 1040.1 378.63 1040.1 377.73C1040.1 376.83 1041.26 375.689 1043.06 374.83C1043.5 374.617 1043.98 374.428 1044.47 374.251C1044.76 375.373 1045.15 376.543 1045.62 377.742C1045.17 378.87 1044.79 380.03 1044.49 381.216C1044.01 381.047 1043.53 380.852 1043.06 380.631ZM1045.8 388.823C1045.11 388.378 1044.81 386.674 1045.04 384.484C1045.1 383.945 1045.19 383.377 1045.3 382.798C1046.3 383.073 1047.39 383.285 1048.53 383.424C1049.18 384.431 1049.89 385.389 1050.65 386.29C1048.99 388.027 1047.43 388.979 1046.38 388.979C1046.18 388.981 1045.98 388.928 1045.8 388.824V388.823ZM1057.87 384.455C1058.11 386.645 1057.82 388.348 1057.13 388.801C1056.98 388.904 1056.78 388.95 1056.54 388.95C1055.49 388.95 1053.93 388.004 1052.27 386.277C1053.03 385.38 1053.73 384.424 1054.37 383.418C1055.46 383.292 1056.54 383.081 1057.61 382.787C1057.72 383.366 1057.82 383.922 1057.87 384.455ZM1059.83 380.631C1059.39 380.843 1058.92 381.033 1058.42 381.21C1058.11 380.018 1057.73 378.852 1057.28 377.718C1057.75 376.527 1058.12 375.363 1058.41 374.245C1058.89 374.414 1059.37 374.609 1059.84 374.83C1061.64 375.694 1062.8 376.83 1062.8 377.73C1062.8 378.63 1061.63 379.772 1059.83 380.631Z" fill="url(#paint9_linear_272_2)"/>
<path d="M1051.44 380.35C1052.06 380.35 1052.65 380.074 1053.09 379.582C1053.53 379.091 1053.77 378.424 1053.77 377.729C1053.77 377.034 1053.53 376.368 1053.09 375.876C1052.65 375.385 1052.06 375.109 1051.44 375.109C1050.83 375.109 1050.24 375.385 1049.8 375.876C1049.36 376.368 1049.12 377.034 1049.12 377.729C1049.12 378.424 1049.36 379.091 1049.8 379.582C1050.24 380.074 1050.83 380.35 1051.44 380.35Z" fill="url(#paint10_linear_272_2)"/>
<path d="M976.357 328.806H963.666C962.71 328.806 961.935 329.679 961.935 330.755V345.054C961.935 346.131 962.71 347.004 963.666 347.004H976.357C977.312 347.004 978.087 346.131 978.087 345.054V330.755C978.087 329.679 977.312 328.806 976.357 328.806ZM970.725 342.999C970.725 344.77 969.802 345.578 968.457 345.578C967.242 345.578 966.539 344.871 966.179 344.014L967.415 343.173C967.653 343.649 967.87 344.051 968.392 344.051C968.89 344.051 969.207 343.831 969.207 342.974V337.161H970.725V342.999ZM974.316 345.578C972.906 345.578 971.994 344.823 971.551 343.831L972.787 343.027C973.112 343.624 973.537 344.067 974.283 344.067C974.911 344.067 975.315 343.714 975.315 343.222C975.315 342.637 974.904 342.43 974.208 342.085L973.829 341.902C972.733 341.378 972.009 340.716 972.009 339.322C972.009 338.039 972.877 337.064 974.229 337.064C975.196 337.064 975.888 337.442 976.385 338.433L975.203 339.286C974.943 338.762 974.662 338.555 974.226 338.555C973.782 338.555 973.501 338.872 973.501 339.286C973.501 339.798 973.782 340.005 974.435 340.326L974.813 340.509C976.104 341.13 976.829 341.768 976.829 343.198C976.829 344.733 975.754 345.578 974.316 345.578Z" fill="url(#paint11_linear_272_2)"/>
<path d="M1106.06 454.795C1105.76 454.795 1105.46 454.7 1105.19 454.52L1102.45 452.594C1102.04 452.319 1102.24 452.224 1102.37 452.172C1102.92 451.945 1103.03 451.897 1103.61 451.501C1103.68 451.459 1103.76 451.475 1103.82 451.522L1105.93 453.005C1106 453.058 1106.11 453.058 1106.18 453.005L1114.4 447.379C1114.47 447.327 1114.52 447.221 1114.52 447.115V435.863C1114.52 435.752 1114.47 435.652 1114.39 435.594L1106.18 429.973C1106.1 429.92 1106 429.92 1105.93 429.973L1097.72 435.599C1097.64 435.652 1097.59 435.758 1097.59 435.868V447.115C1097.59 447.221 1097.64 447.327 1097.72 447.374L1099.97 448.915C1101.19 449.638 1101.94 448.788 1101.94 447.928V436.824C1101.94 436.665 1102.05 436.544 1102.18 436.544H1103.22C1103.35 436.544 1103.46 436.665 1103.46 436.824V447.933C1103.46 449.865 1102.57 450.974 1101.03 450.974C1100.55 450.974 1100.18 450.974 1099.14 450.361L1096.98 448.889C1096.45 448.525 1096.12 447.844 1096.12 447.11V435.863C1096.12 435.135 1096.45 434.449 1096.98 434.085L1105.19 428.458C1105.71 428.11 1106.4 428.11 1106.92 428.458L1115.14 434.09C1115.67 434.454 1116 435.135 1116 435.868V447.115C1116 447.844 1115.67 448.525 1115.14 448.894L1106.92 454.52C1106.66 454.7 1106.36 454.795 1106.06 454.795ZM1112.69 443.706C1112.69 441.6 1111.49 441.041 1108.97 440.645C1106.41 440.244 1106.15 440.038 1106.15 439.331C1106.15 438.745 1106.37 437.964 1108.26 437.964C1109.95 437.964 1110.57 438.397 1110.83 439.748C1110.85 439.874 1110.95 439.969 1111.06 439.969H1112.13C1112.2 439.969 1112.26 439.938 1112.3 439.88C1112.35 439.822 1112.37 439.742 1112.37 439.663C1112.2 437.336 1110.9 436.254 1108.26 436.254C1105.92 436.254 1104.52 437.425 1104.52 439.394C1104.52 441.526 1105.91 442.117 1108.16 442.381C1110.85 442.693 1111.06 443.162 1111.06 443.79C1111.06 444.878 1110.32 445.342 1108.59 445.342C1106.42 445.342 1105.94 444.693 1105.78 443.41C1105.76 443.273 1105.66 443.173 1105.54 443.173H1104.48C1104.35 443.173 1104.25 443.3 1104.25 443.453C1104.25 445.094 1105 447.052 1108.6 447.052C1111.19 447.047 1112.69 445.828 1112.69 443.706Z" fill="url(#paint12_linear_272_2)"/>
<path fill-rule="evenodd" clip-rule="evenodd" d="M959.494 533.186C957.404 533.186 955.723 535.162 955.723 537.582C955.723 539.054 956.345 540.361 957.301 541.159C956.808 541.575 956.409 542.115 956.135 542.736C955.861 543.357 955.72 544.041 955.723 544.735C955.723 546.207 956.345 547.513 957.301 548.311C956.808 548.727 956.409 549.267 956.135 549.888C955.861 550.509 955.72 551.194 955.723 551.888C955.723 554.308 957.404 556.284 959.494 556.284C961.584 556.284 963.265 554.308 963.265 551.888V548.171C963.926 548.791 964.759 549.131 965.619 549.132C967.709 549.131 969.39 547.155 969.39 544.735C969.393 544.041 969.252 543.357 968.978 542.736C968.704 542.114 968.305 541.574 967.812 541.159C968.305 540.743 968.704 540.203 968.978 539.582C969.252 538.961 969.393 538.276 969.39 537.582C969.39 535.162 967.709 533.186 965.619 533.186H959.494ZM957.14 537.582C957.14 536.051 958.201 534.825 959.494 534.825H961.847V540.34H959.494C958.201 540.34 957.14 539.113 957.14 537.582ZM965.619 540.339H963.265V534.824H965.619C966.913 534.824 967.973 536.051 967.973 537.582C967.973 539.113 966.913 540.339 965.619 540.339ZM957.141 544.735C957.141 543.205 958.202 541.978 959.495 541.978H961.848V547.492H959.494C958.2 547.492 957.14 546.265 957.14 544.735H957.141ZM963.265 544.735C963.265 543.205 964.326 541.978 965.62 541.978C966.914 541.978 967.974 543.204 967.974 544.735C967.974 546.265 966.914 547.492 965.62 547.492C964.326 547.492 963.266 546.266 963.266 544.735H963.265ZM957.141 551.888C957.141 550.357 958.202 549.131 959.495 549.131H961.848V551.888C961.848 553.419 960.789 554.645 959.495 554.645C958.202 554.645 957.141 553.419 957.141 551.888Z" fill="url(#paint13_linear_272_2)"/>
<path d="M1044.35 451.994H1033.07C1031.53 451.994 1030.27 453.408 1030.27 455.152V467.385C1030.27 469.129 1031.53 470.543 1033.07 470.543H1044.35C1045.9 470.543 1047.16 469.129 1047.16 467.385V455.152C1047.16 453.408 1045.9 451.994 1044.35 451.994Z" fill="url(#paint14_linear_272_2)"/>
<path d="M1039.15 456.873L1037.04 460.791L1039.29 464.952C1039.31 464.981 1039.31 465.015 1039.31 465.047C1039.3 465.061 1039.29 465.065 1039.28 465.065L1039.27 465.065L1039.25 465.065C1039.25 465.065 1039.24 465.065 1039.23 465.067H1037.6L1037.57 465.066C1037.48 465.064 1037.42 465.05 1037.38 464.977C1037.23 464.647 1037.08 464.317 1036.93 463.988C1036.79 463.694 1036.65 463.403 1036.51 463.114L1036.45 462.986C1036.27 462.644 1036.11 462.299 1035.94 461.953H1035.93C1035.78 462.295 1035.62 462.636 1035.46 462.974C1035.3 463.314 1035.14 463.652 1034.98 463.988C1034.82 464.324 1034.66 464.658 1034.49 464.99C1034.46 465.058 1034.42 465.072 1034.36 465.074L1034.33 465.074H1032.78L1032.77 465.075L1032.75 465.077C1032.74 465.078 1032.73 465.075 1032.73 465.054C1032.73 465.023 1032.73 464.991 1032.75 464.965L1034.93 460.919L1032.8 456.86C1032.78 456.826 1032.78 456.799 1032.79 456.777C1032.8 456.766 1032.81 456.758 1032.82 456.752C1032.83 456.747 1032.85 456.744 1032.86 456.745H1034.46C1034.49 456.743 1034.53 456.75 1034.56 456.765C1034.59 456.782 1034.61 456.806 1034.63 456.835C1034.76 457.175 1034.91 457.516 1035.08 457.856C1035.25 458.194 1035.41 458.53 1035.58 458.864C1035.75 459.193 1035.91 459.529 1036.05 459.872H1036.07C1036.21 459.529 1036.37 459.189 1036.52 458.851C1036.68 458.52 1036.84 458.185 1037 457.849C1037.16 457.518 1037.32 457.184 1037.47 456.848C1037.48 456.816 1037.49 456.788 1037.52 456.765C1037.54 456.749 1037.58 456.742 1037.61 456.745H1039.09C1039.1 456.742 1039.12 456.743 1039.13 456.749C1039.14 456.755 1039.16 456.766 1039.16 456.78C1039.17 456.793 1039.17 456.809 1039.17 456.825C1039.17 456.841 1039.16 456.855 1039.15 456.867L1039.15 456.873L1039.15 456.873ZM1042.48 465.232L1042.4 465.232C1041.88 465.241 1041.36 465.119 1040.89 464.875C1040.44 464.645 1040.07 464.269 1039.83 463.797C1039.58 463.329 1039.45 462.746 1039.44 462.048L1039.44 461.991C1039.44 461.405 1039.57 460.828 1039.83 460.319C1040.08 459.815 1040.46 459.399 1040.91 459.118L1040.95 459.094C1041.44 458.787 1042.03 458.634 1042.73 458.634L1042.76 458.635L1042.79 458.636L1042.83 458.638L1042.87 458.641L1042.95 458.646L1043.03 458.654L1043.09 458.66V456.146C1043.09 456.086 1043.11 456.056 1043.16 456.056H1044.58C1044.59 456.055 1044.6 456.056 1044.61 456.059C1044.62 456.062 1044.63 456.068 1044.64 456.075C1044.64 456.083 1044.65 456.092 1044.65 456.102C1044.65 456.112 1044.65 456.122 1044.65 456.133V463.675C1044.65 463.802 1044.66 463.939 1044.67 464.085L1044.69 464.416L1044.7 464.607C1044.7 464.634 1044.69 464.66 1044.68 464.683C1044.67 464.706 1044.65 464.724 1044.63 464.735C1044.26 464.908 1043.88 465.036 1043.49 465.118C1043.15 465.187 1042.81 465.225 1042.48 465.232ZM1043.09 463.65V460.166C1043.03 460.147 1042.97 460.134 1042.9 460.127C1042.82 460.119 1042.75 460.114 1042.67 460.115C1042.39 460.112 1042.12 460.182 1041.88 460.319C1041.64 460.453 1041.43 460.656 1041.28 460.906C1041.13 461.152 1041.06 461.474 1041.05 461.871L1041.05 461.914C1041.04 462.192 1041.08 462.469 1041.17 462.731C1041.24 462.942 1041.35 463.133 1041.49 463.293C1041.62 463.439 1041.78 463.548 1041.96 463.612C1042.15 463.68 1042.35 463.715 1042.55 463.714C1042.65 463.714 1042.75 463.71 1042.84 463.701C1042.91 463.695 1042.98 463.681 1043.05 463.661L1043.09 463.65Z" fill="black"/>
<path d="M903.073 344.955C904.4 344.096 905.725 343.229 907.057 342.379C908.322 341.572 909.809 342.316 910.096 343.887C910.262 344.796 909.902 345.778 909.174 346.256C906.786 347.823 904.395 349.385 901.993 350.922C901.249 351.398 900.483 351.31 899.805 350.727C899.117 350.135 898.9 349.319 899.061 348.368C899.245 347.645 899.667 347.161 900.243 346.799C901.194 346.201 902.13 345.571 903.073 344.955Z" fill="url(#paint15_linear_272_2)"/>
<path d="M904.047 344.331C902.723 343.465 901.395 342.606 900.075 341.731C898.822 340.901 898.651 339.077 899.715 338.011C900.331 337.395 901.265 337.256 901.997 337.727C904.396 339.273 906.791 340.825 909.174 342.401C909.912 342.889 910.227 343.68 910.118 344.633C910.007 345.6 909.488 346.22 908.677 346.538C908.029 346.72 907.446 346.55 906.88 346.17C905.945 345.54 904.992 344.942 904.047 344.331Z" fill="url(#paint16_linear_272_2)"/>
<path d="M891.976 343.718C891.126 344.262 890.276 344.805 889.427 345.351C888.93 345.67 888.439 346 887.94 346.314C886.934 346.947 885.739 346.576 885.169 345.462C884.625 344.399 884.937 343.02 885.906 342.383C888.274 340.826 890.649 339.279 893.032 337.75C893.763 337.282 894.521 337.341 895.197 337.901C895.91 338.493 896.144 339.325 895.984 340.301C895.884 340.538 895.825 340.814 895.676 341.001C895.434 341.303 895.159 341.593 894.853 341.806C893.905 342.464 892.937 343.084 891.976 343.718Z" fill="url(#paint17_linear_272_2)"/>
<path d="M891.002 344.328C891.845 344.885 892.687 345.443 893.531 345.999C894.025 346.324 894.524 346.638 895.015 346.968C896.004 347.633 896.317 348.984 895.746 350.098C895.2 351.161 893.985 351.545 893.011 350.918C890.629 349.386 888.253 347.842 885.887 346.281C885.161 345.803 884.827 345.033 884.92 344.093C885.018 343.101 885.541 342.457 886.372 342.126C886.603 342.105 886.845 342.024 887.063 342.076C887.416 342.161 887.777 342.284 888.093 342.477C889.073 343.072 890.034 343.708 891.002 344.328Z" fill="url(#paint18_linear_272_2)"/>
<path fill-rule="evenodd" clip-rule="evenodd" d="M161.792 415.598C156.988 415.598 153.095 420.299 153.095 426.097C153.095 431.895 156.988 436.596 161.792 436.596C166.595 436.596 170.489 431.895 170.489 426.097C170.489 420.299 166.595 415.598 161.792 415.598ZM161.894 432.237C159.09 432.237 156.82 429.49 156.82 426.097C156.82 422.704 159.09 419.957 161.894 419.957C163.263 419.957 164.409 420.566 165.287 421.557L163.856 423.287V423.284C163.324 422.67 162.648 422.355 161.894 422.355C160.219 422.355 158.859 424.066 158.859 426.093C158.859 428.119 160.219 429.835 161.894 429.835C163.413 429.835 164.446 428.784 164.659 427.34H161.894V424.945H166.666C166.73 425.357 166.764 425.785 166.764 426.235C166.764 429.743 164.824 432.237 161.894 432.237Z" fill="url(#paint19_linear_272_2)"/>
<path d="M42.7792 498.041H45.1266V499.166H43.7608V500.292H45.1266V501.417H42.7792V498.041ZM45.5956 498.041H47.9439V499.02H46.578V499.216H47.9439V501.467H45.5956V500.439H46.9614V500.243H45.5956V498.041ZM48.4137 498.041H50.7602V499.02H49.3944V499.216H50.7602V501.467H48.4137V500.439H49.7795V500.243H48.4137V498.041Z" fill="url(#paint20_linear_272_2)"/>
<path fill-rule="evenodd" clip-rule="evenodd" d="M46.8567 522.447L40.6257 520.499L38.7888 502.964H54.9408L53.1048 520.497L46.8567 522.447ZM42.4203 510.902L42.5917 513.052H49.2113L48.9897 515.841L46.8594 516.489H46.8576L44.7309 515.843L44.5945 514.128H42.677L42.9444 517.505L46.8567 518.727L50.7754 517.505L51.2527 511.479L51.2994 510.902L51.644 506.548H42.0766L42.2507 508.699H49.5514L49.3773 510.902H42.4203Z" fill="url(#paint21_linear_272_2)"/>
<path d="M236.962 304.364H250.629V320.541H236.962V304.364ZM236.34 321.297H251.249V303.608H236.34V321.297ZM246.105 309.913C246.105 309.852 246.124 309.822 246.18 309.822H247.155C247.205 309.822 247.23 309.845 247.23 309.913V315.877C247.23 315.937 247.218 315.968 247.155 315.968H246.193C246.131 315.968 246.112 315.93 246.112 315.869V309.913H246.106H246.105ZM246.037 308.197C246.037 307.992 246.104 307.796 246.223 307.652C246.342 307.507 246.503 307.426 246.671 307.426C246.839 307.426 247 307.507 247.119 307.652C247.238 307.796 247.305 307.992 247.305 308.197C247.311 308.301 247.298 308.406 247.268 308.504C247.237 308.602 247.19 308.691 247.128 308.764C247.067 308.838 246.993 308.894 246.912 308.929C246.831 308.964 246.744 308.977 246.659 308.968C246.575 308.974 246.491 308.959 246.412 308.922C246.333 308.885 246.262 308.828 246.203 308.755C246.145 308.682 246.099 308.594 246.071 308.498C246.042 308.402 246.031 308.299 246.038 308.197H246.037ZM243.242 312.4C243.068 311.558 242.656 309.732 242.503 308.847H242.49C242.36 309.732 242.031 311.229 241.77 312.4H243.242ZM241.515 313.625L241.024 315.893C241.012 315.953 240.993 315.968 240.931 315.968H240.019C239.956 315.968 239.944 315.946 239.956 315.855L241.72 308.339C241.763 308.134 241.784 307.923 241.783 307.712C241.783 307.658 241.801 307.636 241.832 307.636H243.137C243.18 307.636 243.199 307.651 243.211 307.712L245.187 315.868C245.199 315.928 245.187 315.966 245.137 315.966H244.106C244.056 315.966 244.025 315.952 244.013 315.902L243.503 313.626H241.515L241.515 313.625Z" fill="url(#paint22_linear_272_2)"/>
<path fill-rule="evenodd" clip-rule="evenodd" d="M105.882 349.903C105.882 349.506 106.019 349.125 106.264 348.843C106.509 348.562 106.841 348.404 107.187 348.404H120.198C120.369 348.404 120.539 348.443 120.698 348.518C120.856 348.593 121 348.703 121.122 348.843C121.243 348.982 121.339 349.147 121.405 349.329C121.471 349.511 121.504 349.706 121.504 349.903V364.844C121.504 365.041 121.471 365.237 121.405 365.419C121.34 365.601 121.244 365.766 121.122 365.906C121.001 366.045 120.857 366.155 120.698 366.231C120.54 366.306 120.37 366.345 120.198 366.345H107.187C107.015 366.345 106.846 366.306 106.687 366.231C106.529 366.155 106.385 366.045 106.264 365.906C106.142 365.766 106.046 365.601 105.981 365.419C105.915 365.237 105.881 365.042 105.882 364.845V349.903ZM112.065 355.245H114.181V356.465C114.486 355.763 115.267 355.132 116.441 355.132C118.691 355.132 119.225 356.529 119.225 359.092V363.84H116.947V359.676C116.947 358.216 116.642 357.393 115.867 357.393C114.791 357.393 114.343 358.281 114.343 359.676V363.84H112.065V355.245ZM108.16 363.728H110.438V355.132H108.16V363.727V363.728ZM110.764 352.329C110.768 352.553 110.733 352.775 110.662 352.984C110.59 353.192 110.483 353.382 110.346 353.542C110.21 353.702 110.047 353.829 109.867 353.916C109.687 354.003 109.494 354.048 109.299 354.048C109.104 354.048 108.911 354.003 108.731 353.916C108.551 353.829 108.388 353.702 108.252 353.542C108.115 353.382 108.008 353.192 107.936 352.984C107.865 352.775 107.83 352.553 107.834 352.329C107.843 351.889 108.001 351.47 108.275 351.163C108.548 350.855 108.916 350.683 109.299 350.683C109.682 350.683 110.05 350.855 110.323 351.163C110.597 351.47 110.755 351.889 110.764 352.329Z" fill="url(#paint23_linear_272_2)"/>
<path d="M178.88 509.389L180.717 512.266L190.014 509.389M169.221 531.787L174.25 526.298L171.224 522.671M178.118 509.389L175.43 512.093L179.952 512.281M167.671 509.391L168.634 511.599L173.956 511.968M170.518 520.843L174.449 512.658L163.035 511.967M170.975 521.36L174.688 525.813L178.784 521.332L180.054 512.985L175.064 512.699L170.975 521.36Z" fill="url(#paint24_linear_272_2)"/>
<defs>

<linearGradient id="paint0_linear_272_2" x1="609.395" y1="2.27393" x2="609.395" y2="334.224" gradientUnits="userSpaceOnUse">
<stop stop-color="#3D1768"/>
<stop offset="1" stop-color="#3D1768" stop-opacity="0"/>
</linearGradient>
<linearGradient id="paint1_linear_272_2" x1="557.826" y1="21.3302" x2="557.826" y2="354.509" gradientUnits="userSpaceOnUse">
<stop stop-color="#3D1768"/>
<stop offset="1" stop-color="#3D1768" stop-opacity="0"/>
</linearGradient>
<linearGradient id="paint2_linear_272_2" x1="506.402" y1="32.7124" x2="506.402" y2="374.18" gradientUnits="userSpaceOnUse">
<stop stop-color="#3D1768"/>
<stop offset="1" stop-color="#3D1768" stop-opacity="0"/>
</linearGradient>
<linearGradient id="paint3_linear_272_2" x1="551.924" y1="36.5981" x2="551.924" y2="393.577" gradientUnits="userSpaceOnUse">
<stop stop-color="#3D1768"/>
<stop offset="1" stop-color="#3D1768" stop-opacity="0"/>
</linearGradient>
<linearGradient id="paint4_linear_272_2" x1="551.303" y1="318.855" x2="551.303" y2="649.576" gradientUnits="userSpaceOnUse">
<stop stop-opacity="0"/>
<stop offset="0.479167" stop-color="#763CAC"/>
</linearGradient>
<linearGradient id="paint5_linear_272_2" x1="556.894" y1="318.855" x2="556.894" y2="649.576" gradientUnits="userSpaceOnUse">
<stop stop-opacity="0"/>
<stop offset="0.479167" stop-color="#763CAC"/>
</linearGradient>
<linearGradient id="paint6_linear_272_2" x1="567.754" y1="312" x2="567.754" y2="642.72" gradientUnits="userSpaceOnUse">
<stop stop-opacity="0"/>
<stop offset="0.479167" stop-color="#763CAC"/>
</linearGradient>
<linearGradient id="paint7_linear_272_2" x1="556.894" y1="230.336" x2="556.894" y2="568.432" gradientUnits="userSpaceOnUse">
<stop offset="0.197917" stop-opacity="0"/>
<stop offset="1" stop-color="#763CAC"/>
</linearGradient>
<linearGradient id="paint8_linear_272_2" x1="556.273" y1="342.215" x2="556.273" y2="543.843" gradientUnits="userSpaceOnUse">
<stop offset="0.197917" stop-opacity="0"/>
<stop offset="1" stop-color="#763CAC"/>
</linearGradient>
<linearGradient id="paint9_linear_272_2" x1="1051.45" y1="365.203" x2="1051.45" y2="390.252" gradientUnits="userSpaceOnUse">
<stop stop-color="#693B93" stop-opacity="0.53"/>
<stop offset="1" stop-color="#693B93"/>
</linearGradient>
<linearGradient id="paint10_linear_272_2" x1="1051.44" y1="375.109" x2="1051.44" y2="380.35" gradientUnits="userSpaceOnUse">
<stop stop-color="#693B93" stop-opacity="0.53"/>
<stop offset="1" stop-color="#693B93"/>
</linearGradient>
<linearGradient id="paint11_linear_272_2" x1="970.011" y1="328.806" x2="970.011" y2="347.004" gradientUnits="userSpaceOnUse">
<stop stop-color="#693B93" stop-opacity="0.53"/>
<stop offset="1" stop-color="#693B93"/>
</linearGradient>
<linearGradient id="paint12_linear_272_2" x1="1106.06" y1="428.197" x2="1106.06" y2="454.795" gradientUnits="userSpaceOnUse">
<stop stop-color="#693B93" stop-opacity="0.53"/>
<stop offset="1" stop-color="#693B93"/>
</linearGradient>
<linearGradient id="paint13_linear_272_2" x1="962.556" y1="533.186" x2="962.556" y2="556.284" gradientUnits="userSpaceOnUse">
<stop stop-color="#693B93" stop-opacity="0.53"/>
<stop offset="1" stop-color="#693B93"/>
</linearGradient>
<linearGradient id="paint14_linear_272_2" x1="1038.71" y1="451.994" x2="1038.71" y2="470.543" gradientUnits="userSpaceOnUse">
<stop stop-color="#693B93" stop-opacity="0.53"/>
<stop offset="1" stop-color="#693B93"/>
</linearGradient>
<linearGradient id="paint15_linear_272_2" x1="904.573" y1="342.05" x2="904.573" y2="351.229" gradientUnits="userSpaceOnUse">
<stop stop-color="#693B93" stop-opacity="0.53"/>
<stop offset="1" stop-color="#693B93"/>
</linearGradient>
<linearGradient id="paint16_linear_272_2" x1="904.577" y1="337.446" x2="904.577" y2="346.611" gradientUnits="userSpaceOnUse">
<stop stop-color="#693B93" stop-opacity="0.53"/>
<stop offset="1" stop-color="#693B93"/>
</linearGradient>
<linearGradient id="paint17_linear_272_2" x1="890.467" y1="337.436" x2="890.467" y2="346.622" gradientUnits="userSpaceOnUse">
<stop stop-color="#693B93" stop-opacity="0.53"/>
<stop offset="1" stop-color="#693B93"/>
</linearGradient>
<linearGradient id="paint18_linear_272_2" x1="890.467" y1="342.059" x2="890.467" y2="351.22" gradientUnits="userSpaceOnUse">
<stop stop-color="#693B93" stop-opacity="0.53"/>
<stop offset="1" stop-color="#693B93"/>
</linearGradient>
<linearGradient id="paint19_linear_272_2" x1="161.792" y1="415.598" x2="161.792" y2="436.596" gradientUnits="userSpaceOnUse">
<stop stop-color="#693B93" stop-opacity="0.53"/>
<stop offset="1" stop-color="#693B93"/>
</linearGradient>
<linearGradient id="paint20_linear_272_2" x1="46.7697" y1="498.041" x2="46.7697" y2="501.467" gradientUnits="userSpaceOnUse">
<stop stop-color="#693B93" stop-opacity="0.53"/>
<stop offset="1" stop-color="#693B93"/>
</linearGradient>
<linearGradient id="paint21_linear_272_2" x1="46.8648" y1="502.964" x2="46.8648" y2="522.447" gradientUnits="userSpaceOnUse">
<stop stop-color="#693B93" stop-opacity="0.53"/>
<stop offset="1" stop-color="#693B93"/>
</linearGradient>
<linearGradient id="paint22_linear_272_2" x1="243.794" y1="303.608" x2="243.794" y2="321.297" gradientUnits="userSpaceOnUse">
<stop stop-color="#693B93" stop-opacity="0.53"/>
<stop offset="1" stop-color="#693B93"/>
</linearGradient>
<linearGradient id="paint23_linear_272_2" x1="113.693" y1="348.404" x2="113.693" y2="366.345" gradientUnits="userSpaceOnUse">
<stop stop-color="#693B93" stop-opacity="0.53"/>
<stop offset="1" stop-color="#693B93"/>
</linearGradient>
<linearGradient id="paint24_linear_272_2" x1="176.524" y1="509.389" x2="176.524" y2="531.787" gradientUnits="userSpaceOnUse">
<stop stop-color="#693B93" stop-opacity="0.53"/>
<stop offset="1" stop-color="#693B93"/>
</linearGradient>
</defs>
</svg>
